<svg width="588" height="150" viewBox="0 0 588 150" fill="none" xmlns="http://www.w3.org/2000/svg">
  <g id="Logo">
    <g id="layer1">
      <g id="g2400">
        <path id="path187" d="M260.022 -19.4717L347.752 4.87463C347.667 -22.4895 336.645 -42.2248 314.187 -48.1785C291.288 -54.249 272.535 -43.4427 260.022 -19.4717Z" fill="#377ABA" />
        <path id="path189" d="M255.659 -2.51422C251.359 22.0366 247.982 46.8641 245.965 72.0995C269.057 81.1816 296.6 83.7324 330.424 77.0656C336.614 59.3498 340.643 40.6738 344.844 22.0744L255.659 -2.51422Z" fill="#377ABA" />
        <path id="path191" d="M247.689 138.193C251.564 154.653 254.995 171.691 269.864 173.865C287.085 171.166 293.104 156.348 302.945 143.583C283.052 143.915 264.674 142.06 247.689 138.193Z" fill="#377ABA" />
      </g>
      <g id="g2392">
        <path id="path2259" d="M243.7 52.5359C234.406 63.1376 223.31 73.9128 245.121 86.2212C268.806 99.5866 317.615 100.355 350.17 83.1379C364.937 75.3276 355.955 62.8762 348.113 53.5033C354.381 53.0389 380.264 73.5427 348.784 99.2148C332.691 112.339 265.776 127.799 234.497 94.2722C211.04 69.1304 239.157 53.1361 243.701 52.5359H243.7Z" fill="#265F99" />
        <path id="path2261" d="M231.241 38.9428C210.491 47.9898 184.512 58.0265 183.429 81.2535C180.906 135.356 273.734 141.082 298.588 140.694C395.102 139.188 405.447 88.6863 404.664 81.5961C402.266 59.8491 386.746 47.5586 361.651 39.7992C377.957 50.9393 396.803 60.8165 395.239 78.3413C391.366 121.758 306.904 122.314 294.818 122.365C268.467 122.477 196.159 114.465 194.91 78.684C194.308 61.4175 215.889 51.1098 231.241 38.9428Z" fill="#265F99" />
        <path id="path2317" d="M217.874 15.3037C183.502 22.665 147.71 30.7759 119.337 61.0403C97.7143 84.1051 83.0559 123.357 118.823 156.967C176.677 211.331 237.501 210.073 295.675 213.496C391.998 219.163 445.79 185.995 475.268 152.342C485.074 141.148 494.94 116.793 491.719 98.2121C488.15 77.6202 463.325 54.0433 454.361 47.8504C421.803 25.3571 395.519 21.4846 375.532 15.9889C408.382 32.7292 445.216 36.8488 470.812 76.9711C485.81 100.479 484.949 124.919 460.873 146.861C417.512 186.377 358.107 196.978 293.618 195.509C221.194 193.86 159.706 181.192 126.706 143.435C109.484 123.73 111.448 115.892 110.94 105.406C109.814 82.1704 124.934 66.1243 142.129 52.3041C170.195 29.7466 193.668 24.5119 217.874 15.3037H217.874Z" fill="#265F99" />
      </g>
    </g>
  </g>
</svg>