<?xml version="1.0" encoding="UTF-8" standalone="no"?>
<!-- Created with Inkscape (http://www.inkscape.org/) -->

<svg
   width="62.123016mm"
   height="57.294529mm"
   viewBox="0 0 62.123016 57.294529"
   version="1.1"
   id="svg5"
   xml:space="preserve"
   inkscape:version="1.2.1 (9c6d41e410, 2022-07-14)"
   sodipodi:docname="vectorLogo.svg"
   xmlns:inkscape="http://www.inkscape.org/namespaces/inkscape"
   xmlns:sodipodi="http://sodipodi.sourceforge.net/DTD/sodipodi-0.dtd"
   xmlns="http://www.w3.org/2000/svg"
   xmlns:svg="http://www.w3.org/2000/svg"><sodipodi:namedview
     id="namedview7"
     pagecolor="#505050"
     bordercolor="#eeeeee"
     borderopacity="1"
     inkscape:showpageshadow="0"
     inkscape:pageopacity="0"
     inkscape:pagecheckerboard="0"
     inkscape:deskcolor="#505050"
     inkscape:document-units="mm"
     showgrid="false"
     inkscape:zoom="0.35355339"
     inkscape:cx="233.34524"
     inkscape:cy="45.254834"
     inkscape:window-width="2560"
     inkscape:window-height="1377"
     inkscape:window-x="-8"
     inkscape:window-y="-8"
     inkscape:window-maximized="1"
     inkscape:current-layer="layer1"
     showguides="true" /><defs
     id="defs2" /><g
     inkscape:label="Layer 1"
     inkscape:groupmode="layer"
     id="layer1"
     transform="translate(-76.324629,-116.31711)"><path
       sodipodi:type="star"
       style="fill:#008080;fill-opacity:1;stroke:none;stroke-width:0.1;stroke-dasharray:none;stroke-opacity:1"
       id="path2384"
       inkscape:flatsided="true"
       sodipodi:sides="6"
       sodipodi:cx="105.79864"
       sodipodi:cy="146.02271"
       sodipodi:r1="31.061508"
       sodipodi:r2="26.900055"
       sodipodi:arg1="1.0471976"
       sodipodi:arg2="1.5707963"
       inkscape:rounded="0.15"
       inkscape:randomized="0"
       d="m 121.32939,172.92276 c -4.03501,2.32961 -27.0265,2.32961 -31.061508,0 -4.035008,-2.32961 -15.530753,-22.24083 -15.530753,-26.90006 0,-4.65922 11.495747,-24.57044 15.530756,-26.90005 4.035008,-2.32961 27.026495,-2.32961 31.061505,0 4.03501,2.32961 15.53076,22.24083 15.53076,26.90006 0,4.65922 -11.49575,24.57044 -15.53076,26.90005 z"
       inkscape:transform-center-x="1.3328963e-06"
       inkscape:transform-center-y="-1.8396561e-06"
       transform="translate(1.5875,-1.0583333)" /><g
       id="g2400"
       inkscape:label="Bobber"><path
         style="fill:#00ffff;stroke-width:0.264583"
         d="m 109.79808,127.00715 1.36752,0.3962 -0.86908,4.37735 -1.42503,-0.42815 z"
         id="path183" /><path
         style="fill:#00ffff;stroke-width:0.264583"
         d="m 109.99166,121.39549 c -0.68203,1.74907 -0.44853,4.66266 0.60614,5.08074 1.04895,0.41582 2.90667,-3.12427 2.44754,-4.63081 -0.17887,-0.58691 -0.68701,-0.92293 -1.36308,-1.05361 -0.74469,-0.14394 -1.48669,0.0807 -1.6906,0.60368 z"
         id="path185"
         sodipodi:nodetypes="sssss" /><path
         style="fill:#00ffff;stroke-width:0.264583"
         d="m 103.8551,135.57654 9.25315,2.56889 c -0.009,-2.88732 -1.17153,-4.96969 -3.54022,-5.59789 -2.41515,-0.64053 -4.39312,0.4997 -5.71293,3.029 z"
         id="path187"
         sodipodi:nodetypes="ccsc" /><path
         style="fill:#00ffff;stroke-width:0.264583"
         d="m 103.395,137.36582 c -0.45351,2.59047 -0.80972,5.21013 -1.02245,7.87284 2.43558,0.9583 5.34059,1.22745 8.90808,0.52401 0.65288,-1.86928 1.07779,-3.83988 1.52089,-5.80239 z"
         id="path189"
         sodipodi:nodetypes="ccccc" /><path
         style="fill:#00ffff;fill-opacity:1;stroke:none;stroke-width:0.1;stroke-dasharray:none;stroke-opacity:1"
         d="m 102.609,151.93569 c 0.40874,1.73676 0.77057,3.53451 2.33884,3.76389 1.81633,-0.28476 2.45114,-1.84827 3.4891,-3.19515 -2.09815,0.035 -4.03651,-0.16074 -5.82794,-0.56874 z"
         id="path191"
         sodipodi:nodetypes="cccc" /><path
         style="fill:#00ffff;stroke-width:0.264583"
         d="m 102.80769,159.88693 c 0.63863,0.0867 1.27727,0.14589 1.9159,0.19882 l -1.53633,7.39246 c -0.21645,0.49868 -0.55581,0.63371 -0.9218,0.54223 -0.79778,-0.10676 -0.87151,-0.47857 -0.86758,-0.95794 z"
         id="path193"
         sodipodi:nodetypes="cccccc" /></g><g
       id="g2392"
       inkscape:label="Ripples"
       style="fill:#0000ff"><path
         style="fill:#0000ff;fill-opacity:1;stroke:none;stroke-width:0.1;stroke-dasharray:none;stroke-opacity:1"
         d="m 102.13364,143.17441 c -0.98024,1.11863 -2.150593,2.25557 0.14989,3.55429 2.49804,1.41025 7.64605,1.49136 11.07966,-0.32534 1.55756,-0.8241 0.61025,-2.13791 -0.21689,-3.12689 0.66108,-0.049 3.39097,2.11445 0.0708,4.82324 -1.69736,1.3848 -8.75504,3.01604 -12.05414,-0.52151 -2.474008,-2.65283 0.49148,-4.34046 0.97073,-4.40379 z"
         id="path2259"
         sodipodi:nodetypes="csscsscc" /><path
         style="fill:#0000ff;fill-opacity:1;stroke:none;stroke-width:0.1;stroke-dasharray:none;stroke-opacity:1"
         d="m 100.8195,141.74014 c -2.188514,0.95459 -4.928552,2.01361 -5.042784,4.4644 -0.266079,5.70857 9.524644,6.31278 12.146054,6.27185 10.17951,-0.15893 11.2706,-5.48758 11.18811,-6.2357 -0.25302,-2.29463 -1.88989,-3.59145 -4.5367,-4.41018 1.71982,1.17544 3.70748,2.21764 3.5426,4.06676 -0.40849,4.58115 -9.31692,4.63974 -10.59165,4.64515 -2.77929,0.0118 -10.405785,-0.83353 -10.537425,-4.609 -0.06352,-1.82187 2.212662,-2.90948 3.831795,-4.19328 z"
         id="path2261"
         sodipodi:nodetypes="cssscsssc" /><path
         style="fill:#0000ff;fill-opacity:1;stroke:none;stroke-width:0.1;stroke-dasharray:none;stroke-opacity:1"
         d="m 99.409688,139.24586 c -3.625292,0.77672 -7.400308,1.63255 -10.392831,4.82589 -2.28063,2.43368 -3.826687,6.57536 -0.05423,10.12172 6.101933,5.73622 12.517203,5.60342 18.652873,5.96457 10.15942,0.59798 15.83296,-2.90168 18.94207,-6.45259 1.03421,-1.18116 2.07482,-3.75098 1.73515,-5.71153 -0.37644,-2.17275 -2.99479,-4.66046 -3.94024,-5.3139 -3.43397,-2.37338 -6.20619,-2.78198 -8.31426,-3.36186 3.4647,1.76635 7.34968,2.20102 10.04941,6.43452 1.58178,2.48042 1.49106,5.05925 -1.04832,7.37439 -4.57339,4.16953 -10.83895,5.28811 -17.6407,5.13315 -7.638763,-0.17403 -14.124043,-1.51069 -17.604557,-5.49464 -1.816403,-2.07913 -1.60926,-2.90614 -1.662853,-4.01254 -0.118762,-2.45175 1.475952,-4.14485 3.289557,-5.60309 2.960174,-2.38014 5.435874,-2.93249 7.988928,-3.90409 z"
         id="path2317"
         sodipodi:nodetypes="cssssascsssssscc" /></g></g></svg>
